<svg width="512" height="512" viewBox="0 0 512 512" fill="none" xmlns="http://www.w3.org/2000/svg">
<path d="M245.951 26C266.746 26 286.697 29.8205 305.226 36.7891L306.433 37.2432L305.692 38.2988C302.024 43.5353 298.827 49.1161 296.062 54.9658L295.677 55.7822L294.825 55.4814C279.468 50.06 263.032 47.084 245.951 47.084C174.985 47.084 114.674 97.322 99.3066 169.348L99.3027 169.365L56.7227 352.514L56.7236 352.515C54.8755 361.255 56.9449 370.479 62.4355 377.652L62.9443 378.296C68.2859 384.856 76.011 388.599 84.2236 388.599H407.659C415.871 388.599 423.597 384.856 428.975 378.294L429.487 377.65C434.952 370.504 437.024 361.27 435.106 352.362L416.993 274.404L403.822 217.763L403.553 216.601L404.743 216.537C411.184 216.196 417.483 215.382 423.587 214.003L424.557 213.784L424.781 214.752L437.264 268.403L437.303 268.385L437.589 269.619L455.741 347.75L455.743 347.758L455.745 347.767C458.974 362.877 455.512 378.386 446.267 390.491L446.262 390.498C436.802 402.681 422.77 409.663 407.717 409.663H340.291C331.016 453.213 292.269 486 245.97 486C199.671 486 160.924 453.213 151.648 409.663H84.2422C69.1711 409.663 55.1188 402.682 45.7334 390.515L45.7324 390.513C36.4488 378.409 32.9653 362.919 36.1562 347.939L36.1582 347.931L36.1602 347.921L78.7441 164.752C96.1374 83.1562 164.915 26 245.951 26ZM173.617 409.683C182.459 441.469 211.412 464.935 245.951 464.935C280.509 464.934 309.443 441.469 318.284 409.683H173.617ZM398.65 26C441.309 26 476 60.6849 476 103.337C476 145.989 441.309 180.673 398.65 180.673C355.992 180.673 321.301 145.989 321.301 103.337C321.301 60.6849 355.991 26 398.65 26ZM398.65 47.084C367.632 47.084 342.388 72.3242 342.388 103.337C342.388 134.349 367.632 159.589 398.65 159.589C429.669 159.589 454.912 134.349 454.912 103.337C454.912 72.3242 429.669 47.084 398.65 47.084Z" fill="#203193" stroke="#203193" stroke-width="2"/>
</svg>
