<svg width="512" height="512" viewBox="0 0 512 512" fill="none" xmlns="http://www.w3.org/2000/svg">
<path d="M159.234 331.73C233.807 331.73 294.469 392.336 294.469 466.842V476.421C294.469 482.338 289.802 487 283.881 487C277.96 487 273.293 482.338 273.293 476.421V466.842C273.293 403.98 222.157 352.89 159.234 352.89C96.3121 352.89 45.1768 403.98 45.1768 466.842V476.421C45.1766 482.338 40.5086 487 34.5879 487C28.6673 487 24.0001 482.338 24 476.421V466.842C24 392.336 84.6623 331.731 159.234 331.73ZM399.706 25C447.815 25 487 64.1473 487 112.214V112.41L486.233 284.838C486.231 332.903 447.047 372.048 398.939 372.048H303.058C297.137 372.048 292.469 367.386 292.469 361.469C292.469 355.551 297.137 350.89 303.058 350.89H398.939C435.398 350.89 465.057 321.257 465.057 284.834V284.829L465.823 112.405L465.818 111.554C465.36 75.5216 435.88 46.3506 399.706 46.3506H207.176C176.949 46.3506 150.692 66.7341 143.136 95.7979C141.655 101.502 135.934 104.891 130.22 103.411C124.512 101.933 121.116 96.2168 122.599 90.5049C132.493 51.9374 167.218 25 207.176 25H399.706ZM159.234 140.144C202.166 140.144 236.94 174.885 236.94 217.778C236.94 260.672 202.166 295.413 159.234 295.413C116.303 295.413 81.5293 260.672 81.5293 217.778C81.5294 174.885 116.303 140.144 159.234 140.144ZM159.234 161.303C128.145 161.303 102.705 186.72 102.705 217.778C102.705 248.837 128.145 274.255 159.234 274.255C190.324 274.255 215.764 248.837 215.764 217.778C215.764 186.72 190.324 161.303 159.234 161.303ZM399.131 120.985C415.599 120.985 428.895 134.268 428.896 150.723V227.357C428.896 233.275 424.228 237.937 418.308 237.938C412.387 237.938 407.719 233.275 407.719 227.357V157.159L315.462 249.331C309.707 255.081 301.971 258.054 294.428 258.054C286.885 258.054 279.15 255.081 273.395 249.331L267.833 243.775C263.607 239.553 263.607 232.98 267.833 228.758C272.059 224.536 278.637 224.536 282.862 228.758L288.414 234.305C291.53 237.254 296.181 237.536 299.592 235.153L300.433 234.313L392.688 142.144H322.426C316.505 142.144 311.837 137.482 311.837 131.564C311.837 125.647 316.505 120.985 322.426 120.985H399.131Z" fill="#203193" stroke="#203193" stroke-width="2"/>
</svg>
