<svg width="512" height="512" viewBox="0 0 512 512" fill="none" xmlns="http://www.w3.org/2000/svg">
<path d="M349.736 29.5C381.576 29.5 407.484 55.406 407.484 87.2432C407.484 119.08 381.576 144.986 349.736 144.986C341.755 144.986 334.197 143.271 327.294 140.328L282.354 204.618C294.166 215.376 303.111 228.98 308.333 244.421L367.406 232.769C369.738 203.047 394.431 179.5 424.752 179.5C456.591 179.5 482.5 205.406 482.5 237.243C482.5 268.718 457.178 294.394 425.837 294.975L425.815 295.042H424.733C398.905 295.042 377.237 277.893 369.881 254.5L312.862 265.742C313.231 268.603 313.738 271.665 313.738 274.775C313.738 295.476 306.88 314.475 295.619 330.086L351.73 379.563C361.539 371.828 373.759 367.014 387.235 367.014C419.075 367.014 444.982 392.92 444.982 424.757C444.982 456.594 419.075 482.5 387.235 482.5C355.396 482.5 329.487 456.594 329.487 424.757C329.487 414.201 332.486 404.42 337.425 395.943L280.967 346.144C264.215 360.832 242.486 369.995 218.492 369.995C198.243 369.995 179.584 363.451 164.148 352.635L132.26 389.003C140.108 398.838 144.995 411.168 144.995 424.738C144.995 456.575 119.087 482.481 87.248 482.481C55.4085 482.481 29.5 456.575 29.5 424.738C29.5 392.901 55.4085 366.995 87.248 366.995C97.6919 366.995 107.36 369.939 115.791 374.785L147.877 338.18C132.704 321.32 123.246 299.179 123.246 274.738C123.246 246.878 135.535 222.052 154.648 204.638L109.709 140.347C102.806 143.29 95.2478 145.005 87.2666 145.005C55.4271 145.005 29.5186 119.099 29.5186 87.2617C29.5186 55.4259 55.4072 29.5 87.248 29.5C119.087 29.5002 144.995 55.4061 144.995 87.2432C144.995 103.283 138.335 117.714 127.758 128.169L172.308 191.899C186.02 184.2 201.627 179.481 218.492 179.481C235.355 179.481 250.979 184.199 264.676 191.898L309.226 128.169C298.649 117.714 291.989 103.282 291.989 87.2432C291.989 55.4061 317.897 29.5002 349.736 29.5ZM87.2666 388.725C67.4145 388.725 51.2676 404.87 51.2676 424.72C51.2677 444.57 67.4146 460.715 87.2666 460.715C107.119 460.715 123.265 444.57 123.265 424.72C123.265 404.87 107.119 388.725 87.2666 388.725ZM387.254 388.725C367.402 388.725 351.256 404.87 351.256 424.72C351.256 444.57 367.402 460.715 387.254 460.715C407.106 460.715 423.252 444.57 423.252 424.72C423.252 404.87 407.106 388.725 387.254 388.725ZM218.511 201.248C177.978 201.248 145.014 234.21 145.014 274.738C145.014 315.267 177.978 348.228 218.511 348.229C259.043 348.229 292.008 315.267 292.008 274.738C292.008 234.209 259.043 201.248 218.511 201.248ZM424.752 201.248C404.9 201.248 388.754 217.393 388.754 237.243C388.754 257.093 404.9 273.238 424.752 273.238C444.604 273.238 460.751 257.093 460.751 237.243C460.751 217.393 444.604 201.248 424.752 201.248ZM87.2666 51.2666C67.4145 51.2666 51.2676 67.4116 51.2676 87.2617C51.2676 107.112 67.4145 123.257 87.2666 123.257C107.119 123.257 123.265 107.112 123.265 87.2617C123.265 67.4117 107.119 51.2667 87.2666 51.2666ZM349.756 51.2666C329.904 51.2666 313.757 67.4116 313.757 87.2617C313.757 107.112 329.904 123.257 349.756 123.257C369.608 123.257 385.754 107.112 385.754 87.2617C385.754 67.4117 369.608 51.2668 349.756 51.2666Z" fill="#203193" stroke="#203193" stroke-width="3"/>
</svg>
