<svg width="512" height="512" viewBox="0 0 512 512" fill="none" xmlns="http://www.w3.org/2000/svg">
<path d="M76.998 36.4023C95.9441 17.4118 130.971 16.79 151.15 36.4033L151.624 36.8711L151.647 36.8936L151.667 36.9189L189.946 86.627C209.798 106.376 209.782 140.033 189.097 160.723L160.007 195.365C191.579 270.209 244.258 322.893 316.698 352.132L351.777 322.663C371.898 302.924 406.606 303.038 426.557 322.967L474.377 359.584L474.402 359.604L474.936 360.137C485.582 370.905 490.945 384.051 490.945 398.005C490.945 412.165 485.422 425.499 475.403 435.521L456.279 457.508L456.256 457.533C434.252 479.622 405.038 491.5 373.554 491.5C297.576 491.5 209.317 441.178 140.084 371.984C70.8513 302.791 20.5 214.581 20.5 138.646C20.5 107.199 32.4034 78.0013 53.9971 56.4395L54.0088 56.4268L54.0215 56.416L76.998 36.4023ZM114.439 41.7715C106.035 41.7715 97.4999 44.9306 91.0273 51.3994L91.002 51.4229L68.0439 71.4375L67.2412 72.249C50.51 89.3912 41.0605 113.078 41.0605 138.646C41.0605 208.435 89.1857 291.516 154.891 357.184C220.596 422.852 303.724 470.951 373.554 470.951C399.539 470.951 423.586 461.205 441.249 443.514L460.356 421.546L460.847 420.982L460.885 421.06C473.538 407.85 473.38 387.583 460.87 375.058L413.055 338.444L413.029 338.425L413.008 338.403C398.805 324.42 378.307 325.265 366.005 337.561L365.987 337.576C365.798 337.748 365.572 337.97 365.346 338.155L365.347 338.156L325.268 371.82L325.267 371.821C322.389 374.225 318.442 374.862 314.988 373.547H314.987C232.249 341.962 172.901 282.682 138.621 197.363L138.494 197.032C137.244 193.599 137.917 189.75 140.286 186.924L140.287 186.923L173.97 146.867L173.983 146.851L173.998 146.836C187.267 133.517 187.254 112.857 174.565 100.175L174.543 100.151L174.523 100.126L136.227 50.4404C130.424 44.6923 122.507 41.7716 114.439 41.7715ZM275.215 132.975C274.855 73.7686 326.925 18.2011 387.098 21.6523L387.097 21.6533C443.606 23.6027 489.385 69.3543 491.355 125.852L491.424 127.269C493.857 187.18 437.91 238.894 378.58 237.653V237.654H324.633C297.403 237.654 275.233 215.496 275.232 188.281V134.374L275.215 132.975ZM344.193 79.9668C360.646 79.9668 374.034 93.3474 374.034 109.791C374.034 129.615 360.792 139.505 350.361 147.333L350.362 147.334C344.91 151.43 340.817 154.62 338.227 158.164H363.754C369.428 158.164 374.034 162.767 374.034 168.438C374.034 174.11 369.428 178.713 363.754 178.713H324.633C318.959 178.713 314.354 174.11 314.354 168.438C314.354 148.615 327.595 138.724 338.025 130.896V130.895L339.85 129.521C343.978 126.387 347.22 123.727 349.51 120.909C352.105 117.715 353.474 114.321 353.474 109.791C353.474 104.672 349.316 100.517 344.193 100.517C339.071 100.517 334.913 104.672 334.913 109.791C334.913 115.463 330.307 120.065 324.633 120.065C318.959 120.065 314.354 115.463 314.354 109.791C314.354 93.3475 327.741 79.9669 344.193 79.9668ZM432.234 79.9668C437.909 79.967 442.514 84.5703 442.514 90.2422V168.438C442.514 174.11 437.909 178.713 432.234 178.713C426.56 178.713 421.954 174.11 421.954 168.438V159.164H402.894C391.84 159.164 382.833 150.162 382.833 139.114V90.2422C382.833 84.5703 387.439 79.967 393.113 79.9668C398.788 79.9668 403.394 84.5702 403.394 90.2422V138.614H421.954V90.2422C421.954 84.5702 426.56 79.9668 432.234 79.9668ZM295.793 188.281C295.793 204.172 308.733 217.104 324.633 217.104H378.591L379.729 217.121C427.88 217.472 473.477 175.302 470.816 126.572L470.815 126.562C469.22 80.8252 432.15 43.7563 386.388 42.1816L386.377 42.1807C337.235 39.4813 294.742 85.8328 295.793 134.354V188.281Z" fill="#203193" stroke="#203193"/>
</svg>
