<svg width="512" height="512" viewBox="0 0 512 512" fill="none" xmlns="http://www.w3.org/2000/svg">
<path d="M403.312 58C452.761 58 493 98.222 493 147.65V305.25C493 354.678 452.761 394.9 403.312 394.9H266.354V432.3H344.188C350.179 432.3 355.042 437.161 355.042 443.15C355.042 449.14 350.179 454 344.188 454H166.812C160.821 454 155.958 449.14 155.958 443.15C155.958 437.161 160.821 432.3 166.812 432.3H244.646V394.9H107.688C58.2392 394.9 18 354.678 18 305.25V147.65C18 98.222 58.2392 58 107.688 58H403.312ZM107.688 79.7002C70.2023 79.7002 39.708 110.182 39.708 147.65V305.25C39.708 342.718 70.2023 373.2 107.688 373.2H403.312C440.798 373.2 471.292 342.718 471.292 305.25V147.65C471.292 110.182 440.798 79.7002 403.312 79.7002H107.688Z" fill="#203193" stroke="black" stroke-width="2"/>
</svg>
