<svg width="512" height="512" viewBox="0 0 512 512" fill="none" xmlns="http://www.w3.org/2000/svg">
<path d="M255.5 38.5C375.71 38.5 473.5 136.29 473.5 256.5C473.5 376.71 375.71 474.5 255.5 474.5C135.29 474.5 37.5 376.71 37.5 256.5C37.5 136.29 135.29 38.5 255.5 38.5ZM255.5 59.542C146.906 59.542 58.542 147.906 58.542 256.5C58.542 365.094 146.906 453.458 255.5 453.458C364.094 453.458 452.458 365.094 452.458 256.5C452.458 147.906 364.094 59.542 255.5 59.542ZM255.518 128.708C261.326 128.708 266.039 133.422 266.039 139.229V164.792H281.245C299.442 164.792 316.409 174.584 325.518 190.345L325.778 190.82C328.333 195.776 326.558 201.909 321.667 204.722L321.666 204.721C316.702 207.58 310.205 205.927 307.296 200.867V200.866C301.935 191.591 291.931 185.833 281.228 185.833H230.711C215.373 185.833 202.875 198.315 202.875 213.669C202.875 227.42 212.714 238.97 226.293 241.145H226.294L288.032 251.068H288.033L289.145 251.26C312.389 255.537 329.167 275.589 329.167 299.331C329.167 326.284 307.242 348.208 280.289 348.208H266.021V373.771C266.021 379.578 261.308 384.292 255.5 384.292C249.692 384.292 244.979 379.578 244.979 373.771V348.208H229.772C211.575 348.208 194.588 338.434 185.497 322.649V322.648C182.667 317.774 184.201 311.581 188.888 308.561L189.352 308.278C194.218 305.425 200.404 306.991 203.436 311.666L203.72 312.129L203.721 312.13L203.975 312.562C209.393 321.586 219.253 327.167 229.791 327.167H280.308C295.645 327.167 308.142 314.685 308.143 299.331C308.143 285.58 298.303 274.03 284.725 271.855H284.724L222.985 261.932C199.166 258.098 181.852 237.806 181.852 213.669C181.852 186.716 203.776 164.792 230.729 164.792H244.997V139.229C244.997 133.422 249.71 128.708 255.518 128.708Z" fill="#203193" stroke="#203193" stroke-width="3"/>
</svg>
