<svg width="512" height="512" viewBox="0 0 512 512" fill="none" xmlns="http://www.w3.org/2000/svg">
<g clip-path="url(#clip0_1459_12)">
<path d="M256 365.668C277.81 365.668 295.667 383.525 295.667 405.335C295.667 427.145 277.81 445.002 256 445.002C234.19 445.002 216.334 427.145 216.334 405.335C216.334 383.525 234.19 365.668 256 365.668ZM256 216.335C309.35 216.335 360.819 238.812 397.158 278.092L397.186 278.121C404.131 285.432 403.785 296.954 396.254 303.935L396.242 303.945L396.23 303.957C392.765 307.24 388.182 308.894 383.787 308.895C379.023 308.895 374.399 307.023 370.737 303.359L370.386 302.999C340.815 271.481 299.287 253.215 256 253.215C213.397 253.215 172.264 270.704 142.97 301.553L141.584 303.031C134.8 310.365 123.066 310.888 115.773 303.96L115.744 303.933L115.405 303.611C108.396 296.784 107.995 285.3 114.815 278.121L114.843 278.092C151.182 238.812 202.65 216.335 256 216.335ZM256 67.2148C349.67 67.2148 440.182 106.759 504.043 175.483L504.054 175.496L504.065 175.508C510.407 182.184 510.669 192.368 504.934 199.402L503.11 201.13C499.645 204.413 495.062 206.068 490.667 206.068C485.755 206.068 480.993 204.078 477.28 200.188C420.182 138.786 339.818 103.668 256 103.668C172.835 103.668 92.855 138.242 36.0439 198.769L34.7061 200.203L34.7041 200.204C27.9204 207.538 16.1867 208.061 8.89355 201.133L8.86426 201.105L8.52539 200.785C1.52871 193.976 1.09326 182.677 7.96094 175.268L7.95996 175.267C71.8176 106.547 162.327 67.2149 256 67.2148Z" fill="#203193" stroke="white" stroke-width="6"/>
</g>
<defs>
<clipPath id="clip0_1459_12">
<rect width="512" height="512" fill="white"/>
</clipPath>
</defs>
</svg>
