<svg width="448" height="104" viewBox="0 0 448 104" fill="none" xmlns="http://www.w3.org/2000/svg">
<path d="M53.6 19.9C48.5 17.9 42.8 16.2 37.2 16.2C33.7 16.2 27 17.4 27 22.2C27 31.1 53.8 39.5 53.8 56.2C53.8 63.9 48.4 78.1 24.2 78.1C16.6 78.1 9 77 1.7 75.6L0 57C5.9 59.6 12.9 62 19.4 62C23.1 62 30 61.3 30 56.1C30 47.4 3.2 38.4 3.2 20.7C3.3 15.5 6.3 0 32 0C38.8 0 45.6 0.9 52.1 2.1L53.6 19.9Z" fill="white"/>
<path d="M62.1016 76.6998C64.2016 53.3998 65.3016 27.4998 65.4016 1.2998H87.5016C85.7016 24.4998 84.3016 44.4998 84.1016 76.6998H62.1016ZM103.202 76.6998C98.1016 65.8998 91.8016 55.6998 86.1016 45.0998L103.102 20.3998H127.102L108.202 45.3998C114.202 55.9998 120.602 66.3998 126.802 76.7998H103.202V76.6998Z" fill="white"/>
<path d="M127.898 20.2998H149.798C153.098 33.4998 157.598 46.3998 159.198 59.1998H159.398C162.798 46.2998 168.198 33.3998 173.198 20.2998H194.598L167.398 82.8998C162.098 94.9998 157.698 103.5 140.298 103.5C135.798 103.5 131.298 102.9 126.698 101.9L124.398 85.6998C127.798 87.0998 131.498 88.0998 135.098 88.0998C141.898 88.0998 145.498 83.8998 147.198 77.7998L127.898 20.2998Z" fill="white"/>
<path d="M258.201 76.6998C255.701 61.0998 251.901 45.7998 250.501 30.5998H250.301C247.201 45.8998 242.201 61.0998 238.201 76.6998H210.501C205.601 51.4998 200.101 26.3998 194.301 1.2998H216.801C219.501 19.1998 224.301 36.5998 227.001 53.7998H227.201C231.201 36.4998 236.201 19.0998 240.001 1.2998H265.501C267.801 18.9998 270.901 36.5998 273.701 53.6998H273.901C278.201 36.2998 284.901 18.9998 289.701 1.2998H311.701C303.101 26.3998 294.701 51.4998 286.801 76.6998H258.201Z" fill="white"/>
<path d="M336.202 51.9004C336.202 60.7004 343.502 63.9004 351.002 63.9004C357.702 63.9004 364.402 62.0004 370.802 60.2004L368.002 75.9004C361.602 77.3004 354.902 78.0004 348.302 78.0004C330.302 78.0004 314.602 72.6004 314.602 50.3004C314.602 44.3004 317.002 18.9004 347.002 18.9004C365.502 18.9004 375.702 27.6004 375.702 43.3004C375.702 46.1004 375.502 49.0004 374.902 51.8004H336.202V51.9004ZM355.002 41.6004C355.002 35.0004 352.302 31.7004 346.902 31.7004C340.802 31.7004 337.402 36.8004 336.802 41.6004H355.002Z" fill="white"/>
<path d="M420 18.9998C417.7 18.9998 415.4 19.0998 413.3 19.2998C411 19.4998 408.9 19.7998 406.6 20.2998C407.1 12.2998 407.5 6.6998 408.3 1.2998H385.8C385.5 26.4998 383.8 51.5998 382 76.6998H402.7L402.9 69.5998H403.1C407.5 75.3998 413.2 78.0998 420.7 78.0998C438.9 78.0998 447.8 62.7998 447.8 46.1998C447.8 28.4998 437.4 18.9998 420 18.9998ZM402.8 49.4998C401 51.2998 398.1 51.2998 396.4 49.4998C394.6 47.7998 394.6 44.8998 396.4 43.0998C398.2 41.2998 401.1 41.2998 402.8 43.0998C404.5 44.8998 404.6 47.7998 402.8 49.4998ZM405.8 51.3998C409 48.3998 409 43.4998 405.8 40.4998L409.5 37.0998C412.1 39.5998 413.4 42.7998 413.4 45.9998C413.4 49.1998 412.1 52.3998 409.5 54.7998L405.8 51.3998ZM412.5 59.0998C419.3 51.9998 419.3 40.5998 412.4 33.4998L416.6 29.1998C421.2 33.9998 423.5 40.0998 423.5 46.2998C423.5 52.4998 421.2 58.6998 416.8 63.3998L412.5 59.0998ZM424.2 70.0998L419.9 65.6998C430.2 54.8998 430.1 37.7998 419.8 27.0998L424 22.7998C430.4 29.2998 433.6 37.7998 433.6 46.2998C433.6 54.7998 430.5 63.3998 424.2 70.0998Z" fill="white"/>
<path d="M184.1 97.8996C182.8 98.1996 181.6 98.3996 180.3 98.3996C175.8 98.3996 172.5 95.7996 172.5 90.8996C172.5 85.5996 175.8 82.5996 180.8 82.5996C182 82.5996 183.2 82.7996 184.4 82.9996L184.5 84.7996C183.3 84.3996 182.1 84.1996 180.9 84.1996C177.1 84.1996 174.5 86.7996 174.5 90.7996C174.5 94.4996 176.7 96.8996 180.3 96.8996C181.6 96.8996 183 96.5996 184.3 96.1996L184.1 97.8996Z" fill="white"/>
<path d="M197.399 92.1C197.399 95.1 195.899 98.4 191.599 98.4C188.299 98.4 186.199 96.2 186.199 92.7C186.199 89 188.299 86.5 191.999 86.5C195.299 86.5 197.399 88.6 197.399 92.1ZM188.099 92.8C188.099 95.1 189.199 97 191.699 97C194.499 97 195.499 94.7 195.499 92.1C195.499 89.6 194.399 88 191.799 88C189.299 87.9 188.099 90 188.099 92.8Z" fill="white"/>
<path d="M201.6 88.8C202.4 87.3 203.7 86.5 205.3 86.5C206.8 86.5 208.2 87.2 208.6 88.8C209.4 87.2 210.7 86.5 212.4 86.5C214.3 86.5 215.8 87.5 215.8 89.6C215.8 90.9 215.5 93.5 215.4 98.1H213.5C213.6 95.5 213.9 92.9 213.9 90.4C213.9 88.9 213.2 88 211.7 88C211.1 88 209.8 88.3 209.1 89.9C208.5 91.1 208.5 93.2 208.4 98.1H206.5C206.6 95.5 206.9 92.9 206.9 90.4C206.9 88.9 206.2 88 204.7 88C204.1 88 202.8 88.3 202.1 89.9C201.5 91.1 201.5 93.2 201.4 98.1H199.5C199.8 94.5 200 90.1 200 86.7H201.8L201.6 88.8Z" fill="white"/>
<path d="M220.6 88.8C221.4 87.3 222.7 86.5 224.3 86.5C225.8 86.5 227.2 87.2 227.6 88.8C228.4 87.2 229.7 86.5 231.4 86.5C233.3 86.5 234.8 87.5 234.8 89.6C234.8 90.9 234.5 93.5 234.4 98.1H232.5C232.6 95.5 232.9 92.9 232.9 90.4C232.9 88.9 232.2 88 230.7 88C230.1 88 228.8 88.3 228.1 89.9C227.5 91.1 227.5 93.2 227.4 98.1H225.5C225.6 95.5 225.9 92.9 225.9 90.4C225.9 88.9 225.2 88 223.7 88C223.1 88 221.8 88.3 221.1 89.9C220.5 91.1 220.5 93.2 220.4 98.1H218.5C218.8 94.5 219 90.1 219 86.7H220.8L220.6 88.8Z" fill="white"/>
<path d="M238.902 92.2V92.8C238.902 95.4 240.502 96.9 243.002 96.9C244.102 96.9 245.302 96.6 246.402 96.2L246.102 97.9C245.002 98.2 243.902 98.4 242.802 98.4C238.302 98.4 237.102 95.5 237.102 92.7C237.102 89.2 239.002 86.5 242.502 86.5C245.402 86.5 247.202 88 247.202 91.2C247.202 91.5 247.202 91.8 247.102 92.2H238.902ZM245.402 91C245.402 89.1 244.602 87.7 242.602 87.7C240.602 87.7 239.302 89 239.002 91H245.402Z" fill="white"/>
<path d="M251.102 88.6C251.802 87.2 252.802 86.5 254.402 86.5C254.702 86.5 255.002 86.5 255.302 86.6L255.402 88.3C255.002 88.2 254.602 88.1 254.202 88.1C252.402 88.1 251.402 89.6 251.202 91.3C251.002 92.8 251.002 95.3 251.002 98.2H249.102C249.302 94.9 249.502 91.6 249.502 86.8H251.302L251.102 88.6Z" fill="white"/>
<path d="M264.399 88.5C263.499 88.2 262.499 87.9 261.299 87.9C258.799 87.9 257.599 90.1 257.599 92.8C257.599 95.4 258.899 97 261.499 97C262.399 97 263.199 96.8 264.099 96.5L263.799 98.1C262.899 98.3 261.899 98.4 260.999 98.4C257.599 98.4 255.699 96.4 255.699 92.8C255.699 89.3 257.399 86.5 261.299 86.5C262.299 86.5 263.299 86.6 264.299 86.9L264.399 88.5Z" fill="white"/>
<path d="M268.798 86.6998C268.498 90.4998 268.398 94.2998 268.398 98.0998H266.398C266.698 94.2998 266.798 90.4998 266.898 86.6998H268.798ZM266.798 84.3998V82.7998H268.898V84.3998H266.798Z" fill="white"/>
<path d="M278.202 98.1C278.402 96.3 278.502 93.7 278.602 91.4C277.202 92.9 272.402 92.6 272.402 95.3C272.402 96.7 273.702 97.1 274.902 97.1C275.702 97.1 276.402 96.9 277.202 96.7L276.802 98.1C276.102 98.2 275.402 98.3 274.602 98.3C273.002 98.3 270.602 98 270.602 95.3C270.602 90.5 278.602 92.4 278.602 89.3C278.602 87.9 277.102 87.7 276.102 87.7C274.702 87.7 273.302 88 272.102 88.6L272.302 87.1C273.602 86.7 275.002 86.5 276.402 86.5C280.002 86.5 280.602 88 280.602 89.4C280.602 91.1 280.302 95.6 280.302 98.1H278.202Z" fill="white"/>
<path d="M285.6 82.7998C285.2 87.7998 285.1 92.9998 285 98.0998H283C283.3 92.9998 283.6 87.8998 283.7 82.7998H285.6Z" fill="white"/>
<path d="M293.301 82.7998H295.401C296.601 87.2998 297.901 91.7998 299.301 96.2998C300.401 93.8998 301.501 91.4998 302.401 89.0998C301.801 86.9998 301.101 84.8998 300.401 82.8998H302.501L303.501 86.5998C304.101 85.3998 304.501 84.0998 305.001 82.8998H307.101C306.101 84.9998 305.201 86.9998 304.301 89.0998C305.001 91.4998 305.701 93.9998 306.501 96.2998C308.401 91.8998 310.301 87.3998 312.101 82.7998H314.201L307.401 98.0998H305.201C304.601 95.8998 303.901 93.6998 303.101 91.4998C302.001 93.6998 301.101 95.8998 300.101 98.0998H297.901L293.301 82.7998Z" fill="white"/>
<path d="M317.4 86.6998C317.1 90.4998 317 94.2998 317 98.0998H315C315.3 94.2998 315.4 90.4998 315.5 86.6998H317.4ZM315.5 84.3998V82.7998H317.6V84.3998H315.5Z" fill="white"/>
<path d="M318.801 93.0996L318.901 91.5996H324.301L324.201 93.0996H318.801Z" fill="white"/>
<path d="M335.302 82.7998L335.202 84.3998C334.502 84.3998 333.802 84.2998 333.002 84.2998H328.102L327.902 89.5998H334.202V91.1998C333.002 91.0998 331.702 91.0998 330.502 91.0998H327.902C327.802 93.1998 327.702 96.9998 327.702 98.0998H325.602C325.802 95.9998 326.102 87.1998 326.102 82.7998H335.302Z" fill="white"/>
<path d="M339.701 86.6998C339.401 90.4998 339.301 94.2998 339.301 98.0998H337.301C337.601 94.2998 337.701 90.4998 337.801 86.6998H339.701ZM337.701 84.3998V82.7998H339.801V84.3998H337.701Z" fill="white"/>
<path d="M356.502 84.6996C355.502 84.2996 354.502 84.0996 353.502 84.0996C351.602 84.0996 350.702 85.1996 350.702 86.1996C350.702 89.0996 356.902 90.8996 356.902 94.5996C356.902 97.4996 354.402 98.3996 352.102 98.3996C350.802 98.3996 349.502 98.0996 348.302 97.7996L348.102 95.8996C349.202 96.4996 350.502 96.8996 351.802 96.8996C353.202 96.8996 354.802 96.3996 354.802 94.4996C354.802 92.0996 348.602 89.5996 348.602 86.4996C348.602 84.2996 350.002 82.5996 353.202 82.5996C354.202 82.5996 355.202 82.7996 356.302 82.8996L356.502 84.6996Z" fill="white"/>
<path d="M370.098 92.1C370.098 95.1 368.598 98.4 364.298 98.4C360.998 98.4 358.898 96.2 358.898 92.7C358.898 89 360.998 86.5 364.698 86.5C368.098 86.5 370.098 88.6 370.098 92.1ZM360.798 92.8C360.798 95.1 361.898 97 364.398 97C367.198 97 368.198 94.7 368.198 92.1C368.198 89.6 367.098 88 364.498 88C361.998 87.9 360.798 90 360.798 92.8Z" fill="white"/>
<path d="M374.799 82.7998C374.399 87.7998 374.299 92.9998 374.199 98.0998H372.199C372.499 92.9998 372.799 87.8998 372.899 82.7998H374.799Z" fill="white"/>
<path d="M385.599 95.9998C384.799 97.7998 383.099 98.3998 381.299 98.3998C378.899 98.3998 377.199 97.3998 377.199 94.6998C377.199 92.9998 377.499 89.3998 377.499 86.7998H379.399C379.299 89.1998 378.999 91.6998 378.999 94.1998C378.999 96.0998 380.199 96.8998 381.799 96.8998C384.199 96.8998 385.299 95.3998 385.599 93.1998C385.799 91.4998 385.799 88.6998 385.899 86.7998H387.799C387.599 90.5998 387.299 94.3998 387.299 98.1998H385.499L385.599 95.9998Z" fill="white"/>
<path d="M389.602 88.1998V86.7998H391.102L391.202 84.6998L392.902 84.2998L392.802 86.7998H395.802V88.1998H392.802C392.702 90.3998 392.502 93.4998 392.502 94.8998C392.502 95.9998 392.702 96.8998 393.802 96.8998C394.502 96.8998 395.002 96.7998 395.502 96.5998L395.302 98.0998C394.602 98.2998 394.002 98.3998 393.302 98.3998C391.502 98.3998 390.602 97.6998 390.602 95.6998C390.602 94.3998 390.902 90.6998 391.002 88.1998H389.602Z" fill="white"/>
<path d="M399.701 86.6998C399.401 90.4998 399.301 94.2998 399.301 98.0998H397.301C397.601 94.2998 397.701 90.4998 397.801 86.6998H399.701ZM397.801 84.3998V82.7998H399.901V84.3998H397.801Z" fill="white"/>
<path d="M413.2 92.1C413.2 95.1 411.7 98.4 407.4 98.4C404.1 98.4 402 96.2 402 92.7C402 89 404.1 86.5 407.8 86.5C411.1 86.5 413.2 88.6 413.2 92.1ZM403.9 92.8C403.9 95.1 405 97 407.5 97C410.3 97 411.3 94.7 411.3 92.1C411.3 89.6 410.2 88 407.6 88C405.1 87.9 403.9 90 403.9 92.8Z" fill="white"/>
<path d="M417.499 89C418.399 87.1 419.999 86.5 421.899 86.5C424.199 86.5 425.999 87.4 425.999 90.1C425.999 90.9 425.699 96.3 425.699 98.2H423.799C423.899 96.8 424.199 92.8 424.199 90.8C424.199 88.8 423.099 88.1 421.199 88.1C419.299 88.1 417.999 89.3 417.599 91.2C417.199 93.2 417.199 97.1 417.199 98.2H415.199C415.499 94.4 415.699 90.6 415.799 86.8H417.699L417.499 89Z" fill="white"/>
<path d="M427.801 96.1994C428.801 96.5994 429.801 96.8994 430.901 96.8994C431.801 96.8994 433.101 96.5994 433.101 95.3994C433.101 93.2994 428.601 91.9994 428.601 89.2994C428.601 87.5994 429.801 86.3994 432.301 86.3994C433.201 86.3994 434.101 86.4994 434.901 86.6994L435.001 88.2994C434.301 87.9994 433.501 87.7994 432.501 87.7994C431.601 87.7994 430.401 87.9994 430.401 89.0994C430.401 91.1994 434.901 92.4994 434.901 95.3994C434.901 97.4994 432.801 98.2994 431.101 98.2994C430.001 98.2994 428.901 98.0994 427.901 97.7994L427.801 96.1994Z" fill="white"/>
</svg>
