<?xml version="1.0" encoding="utf-8"?>
<!-- Generator: Adobe Illustrator 27.8.1, SVG Export Plug-In . SVG Version: 6.00 Build 0)  -->
<svg version="1.1" id="Layer_1" xmlns="http://www.w3.org/2000/svg" xmlns:xlink="http://www.w3.org/1999/xlink" x="0px" y="0px"
	 viewBox="0 0 447.8 103.5" style="enable-background:new 0 0 447.8 103.5;" xml:space="preserve">
<g>
	<path style="fill:#283A91;" d="M53.6,19.9c-5.1-2-10.8-3.7-16.4-3.7c-3.5,0-10.2,1.2-10.2,6c0,8.9,26.8,17.3,26.8,34
		c0,7.7-5.4,21.9-29.6,21.9C16.6,78.1,9,77,1.7,75.6L0,57c5.9,2.6,12.9,5,19.4,5c3.7,0,10.6-0.7,10.6-5.9c0-8.7-26.8-17.7-26.8-35.4
		C3.3,15.5,6.3,0,32,0c6.8,0,13.6,0.9,20.1,2.1L53.6,19.9z"/>
	<path style="fill:#283A91;" d="M62.1,76.7c2.1-23.3,3.2-49.2,3.3-75.4h22.1c-1.8,23.2-3.2,43.2-3.4,75.4H62.1z M103.2,76.7
		c-5.1-10.8-11.4-21-17.1-31.6l17-24.7h24l-18.9,25c6,10.6,12.4,21,18.6,31.4H103.2z"/>
	<path style="fill:#283A91;" d="M127.9,20.3h21.9c3.3,13.2,7.8,26.1,9.4,38.9h0.2c3.4-12.9,8.8-25.8,13.8-38.9h21.4l-27.2,62.6
		c-5.3,12.1-9.7,20.6-27.1,20.6c-4.5,0-9-0.6-13.6-1.6l-2.3-16.2c3.4,1.4,7.1,2.4,10.7,2.4c6.8,0,10.4-4.2,12.1-10.3L127.9,20.3z"/>
	<path style="fill:#ED2024;" d="M258.2,76.7c-2.5-15.6-6.3-30.9-7.7-46.1h-0.2c-3.1,15.3-8.1,30.5-12.1,46.1h-27.7
		c-4.9-25.2-10.4-50.3-16.2-75.4h22.5c2.7,17.9,7.5,35.3,10.2,52.5h0.2c4-17.3,9-34.7,12.8-52.5h25.5c2.3,17.7,5.4,35.3,8.2,52.4
		h0.2c4.3-17.4,11-34.7,15.8-52.4h22c-8.6,25.1-17,50.2-24.9,75.4H258.2z"/>
	<path style="fill:#ED2024;" d="M336.2,51.9c0,8.8,7.3,12,14.8,12c6.7,0,13.4-1.9,19.8-3.7L368,75.9c-6.4,1.4-13.1,2.1-19.7,2.1
		c-18,0-33.7-5.4-33.7-27.7c0-6,2.4-31.4,32.4-31.4c18.5,0,28.7,8.7,28.7,24.4c0,2.8-0.2,5.7-0.8,8.5H336.2z M355,41.6
		c0-6.6-2.7-9.9-8.1-9.9c-6.1,0-9.5,5.1-10.1,9.9H355z"/>
	<path style="fill:#ED2024;" d="M402.7,76.7H382c1.8-25.1,3.5-50.2,3.8-75.4h22.5c-0.8,5.4-1.2,11-1.7,19c2.3-0.5,4.4-0.8,6.7-1
		c2.1-0.2,4.4-0.3,6.7-0.3c17.4,0,27.8,9.5,27.8,27.2c0,16.6-8.9,31.9-27.1,31.9c-7.5,0-13.2-2.7-17.6-8.5h-0.2L402.7,76.7z"/>
	<g>
		<path id="path4391" style="fill:#FFFFFF;" d="M423.5,46.3c0-6.2-2.3-12.3-6.9-17.1l-4.2,4.3c6.9,7.1,6.9,18.5,0.1,25.6l4.3,4.3
			C421.2,58.7,423.5,52.5,423.5,46.3L423.5,46.3z M412.3,33.5L412.3,33.5L412.3,33.5z"/>
		<path id="path4395" style="fill:#FFFFFF;" d="M433.6,46.3c0-8.5-3.2-17-9.6-23.5l-4.2,4.3c10.3,10.7,10.4,27.8,0.1,38.6l4.3,4.4
			C430.5,63.4,433.6,54.8,433.6,46.3z M419.8,27L419.8,27L419.8,27z"/>
		<path id="path4381" style="fill:#FFFFFF;" d="M413.4,46c0-3.2-1.3-6.4-3.9-8.9l-3.7,3.4c3.2,3,3.2,7.9,0,10.9l3.7,3.4
			C412.1,52.4,413.4,49.2,413.4,46L413.4,46z M405.8,40.5L405.8,40.5L405.8,40.5z"/>
		<path id="path4411" style="fill:#FFFFFF;" d="M396.4,43.1c1.8-1.8,4.7-1.8,6.4,0s1.8,4.7,0,6.4c-1.8,1.8-4.7,1.8-6.4,0
			C394.6,47.8,394.6,44.9,396.4,43.1l3.2,3.2L396.4,43.1z"/>
	</g>
	<g>
		<path style="fill:#283A91;" d="M184.1,97.9c-1.3,0.3-2.5,0.5-3.8,0.5c-4.5,0-7.8-2.6-7.8-7.5c0-5.3,3.3-8.3,8.3-8.3
			c1.2,0,2.4,0.2,3.6,0.4l0.1,1.8c-1.2-0.4-2.4-0.6-3.6-0.6c-3.8,0-6.4,2.6-6.4,6.6c0,3.7,2.2,6.1,5.8,6.1c1.3,0,2.7-0.3,4-0.7
			L184.1,97.9z"/>
		<path style="fill:#283A91;" d="M197.4,92.1c0,3-1.5,6.3-5.8,6.3c-3.3,0-5.4-2.2-5.4-5.7c0-3.7,2.1-6.2,5.8-6.2
			C195.3,86.5,197.4,88.6,197.4,92.1z M188.1,92.8c0,2.3,1.1,4.2,3.6,4.2c2.8,0,3.8-2.3,3.8-4.9c0-2.5-1.1-4.1-3.7-4.1
			C189.3,87.9,188.1,90,188.1,92.8z"/>
		<path style="fill:#283A91;" d="M201.6,88.8L201.6,88.8c0.8-1.5,2.1-2.3,3.7-2.3c1.5,0,2.9,0.7,3.3,2.3c0.8-1.6,2.1-2.3,3.8-2.3
			c1.9,0,3.4,1,3.4,3.1c0,1.3-0.3,3.9-0.4,8.5h-1.9c0.1-2.6,0.4-5.2,0.4-7.7c0-1.5-0.7-2.4-2.2-2.4c-0.6,0-1.9,0.3-2.6,1.9
			c-0.6,1.2-0.6,3.3-0.7,8.2h-1.9c0.1-2.6,0.4-5.2,0.4-7.7c0-1.5-0.7-2.4-2.2-2.4c-0.6,0-1.9,0.3-2.6,1.9c-0.6,1.2-0.6,3.3-0.7,8.2
			h-1.9c0.3-3.6,0.5-8,0.5-11.4h1.8L201.6,88.8z"/>
		<path style="fill:#283A91;" d="M220.6,88.8L220.6,88.8c0.8-1.5,2.1-2.3,3.7-2.3c1.5,0,2.9,0.7,3.3,2.3c0.8-1.6,2.1-2.3,3.8-2.3
			c1.9,0,3.4,1,3.4,3.1c0,1.3-0.3,3.9-0.4,8.5h-1.9c0.1-2.6,0.4-5.2,0.4-7.7c0-1.5-0.7-2.4-2.2-2.4c-0.6,0-1.9,0.3-2.6,1.9
			c-0.6,1.2-0.6,3.3-0.7,8.2h-1.9c0.1-2.6,0.4-5.2,0.4-7.7c0-1.5-0.7-2.4-2.2-2.4c-0.6,0-1.9,0.3-2.6,1.9c-0.6,1.2-0.6,3.3-0.7,8.2
			h-1.9c0.3-3.6,0.5-8,0.5-11.4h1.8L220.6,88.8z"/>
		<path style="fill:#283A91;" d="M238.9,92.2v0.6c0,2.6,1.6,4.1,4.1,4.1c1.1,0,2.3-0.3,3.4-0.7l-0.3,1.7c-1.1,0.3-2.2,0.5-3.3,0.5
			c-4.5,0-5.7-2.9-5.7-5.7c0-3.5,1.9-6.2,5.4-6.2c2.9,0,4.7,1.5,4.7,4.7c0,0.3,0,0.6-0.1,1H238.9z M245.4,91c0-1.9-0.8-3.3-2.8-3.3
			c-2,0-3.3,1.3-3.6,3.3H245.4z"/>
		<path style="fill:#283A91;" d="M251.1,88.6L251.1,88.6c0.7-1.4,1.7-2.1,3.3-2.1c0.3,0,0.6,0,0.9,0.1l0.1,1.7
			c-0.4-0.1-0.8-0.2-1.2-0.2c-1.8,0-2.8,1.5-3,3.2c-0.2,1.5-0.2,4-0.2,6.9h-1.9c0.2-3.3,0.4-6.6,0.4-11.4h1.8L251.1,88.6z"/>
		<path style="fill:#283A91;" d="M264.4,88.5c-0.9-0.3-1.9-0.6-3.1-0.6c-2.5,0-3.7,2.2-3.7,4.9c0,2.6,1.3,4.2,3.9,4.2
			c0.9,0,1.7-0.2,2.6-0.5l-0.3,1.6c-0.9,0.2-1.9,0.3-2.8,0.3c-3.4,0-5.3-2-5.3-5.6c0-3.5,1.7-6.3,5.6-6.3c1,0,2,0.1,3,0.4
			L264.4,88.5z"/>
		<path style="fill:#283A91;" d="M268.8,86.7c-0.3,3.8-0.4,7.6-0.4,11.4h-2c0.3-3.8,0.4-7.6,0.5-11.4H268.8z M266.8,84.4l0-1.6h2.1
			l0,1.6H266.8z"/>
		<path style="fill:#283A91;" d="M278.2,98.1c0.2-1.8,0.3-4.4,0.4-6.7c-1.4,1.5-6.2,1.2-6.2,3.9c0,1.4,1.3,1.8,2.5,1.8
			c0.8,0,1.5-0.2,2.3-0.4l-0.4,1.4c-0.7,0.1-1.4,0.2-2.2,0.2c-1.6,0-4-0.3-4-3c0-4.8,8-2.9,8-6c0-1.4-1.5-1.6-2.5-1.6
			c-1.4,0-2.8,0.3-4,0.9l0.2-1.5c1.3-0.4,2.7-0.6,4.1-0.6c3.6,0,4.2,1.5,4.2,2.9c0,1.7-0.3,6.2-0.3,8.7H278.2z"/>
		<path style="fill:#283A91;" d="M285.6,82.8c-0.4,5-0.5,10.2-0.6,15.3h-2c0.3-5.1,0.6-10.2,0.7-15.3H285.6z"/>
		<path style="fill:#283A91;" d="M293.3,82.8h2.1c1.2,4.5,2.5,9,3.9,13.5c1.1-2.4,2.2-4.8,3.1-7.2c-0.6-2.1-1.3-4.2-2-6.2h2.1l1,3.7
			c0.6-1.2,1-2.5,1.5-3.7h2.1c-1,2.1-1.9,4.1-2.8,6.2c0.7,2.4,1.4,4.9,2.2,7.2c1.9-4.4,3.8-8.9,5.6-13.5h2.1l-6.8,15.3h-2.2
			c-0.6-2.2-1.3-4.4-2.1-6.6c-1.1,2.2-2,4.4-3,6.6h-2.2L293.3,82.8z"/>
		<path style="fill:#283A91;" d="M317.4,86.7c-0.3,3.8-0.4,7.6-0.4,11.4h-2c0.3-3.8,0.4-7.6,0.5-11.4H317.4z M315.5,84.4l0-1.6h2.1
			l0,1.6H315.5z"/>
		<path style="fill:#283A91;" d="M318.8,93.1l0.1-1.5h5.4l-0.1,1.5H318.8z"/>
		<path style="fill:#283A91;" d="M335.3,82.8l-0.1,1.6c-0.7,0-1.4-0.1-2.2-0.1h-4.9l-0.2,5.3h6.3l0,1.6c-1.2-0.1-2.5-0.1-3.7-0.1
			h-2.6c-0.1,2.1-0.2,5.9-0.2,7h-2.1c0.2-2.1,0.5-10.9,0.5-15.3H335.3z"/>
		<path style="fill:#283A91;" d="M339.7,86.7c-0.3,3.8-0.4,7.6-0.4,11.4h-2c0.3-3.8,0.4-7.6,0.5-11.4H339.7z M337.7,84.4l0-1.6h2.1
			l0,1.6H337.7z"/>
		<path style="fill:#283A91;" d="M356.5,84.7c-1-0.4-2-0.6-3-0.6c-1.9,0-2.8,1.1-2.8,2.1c0,2.9,6.2,4.7,6.2,8.4
			c0,2.9-2.5,3.8-4.8,3.8c-1.3,0-2.6-0.3-3.8-0.6l-0.2-1.9c1.1,0.6,2.4,1,3.7,1c1.4,0,3-0.5,3-2.4c0-2.4-6.2-4.9-6.2-8
			c0-2.2,1.4-3.9,4.6-3.9c1,0,2,0.2,3.1,0.3L356.5,84.7z"/>
		<path style="fill:#283A91;" d="M370.1,92.1c0,3-1.5,6.3-5.8,6.3c-3.3,0-5.4-2.2-5.4-5.7c0-3.7,2.1-6.2,5.8-6.2
			C368.1,86.5,370.1,88.6,370.1,92.1z M360.8,92.8c0,2.3,1.1,4.2,3.6,4.2c2.8,0,3.8-2.3,3.8-4.9c0-2.5-1.1-4.1-3.7-4.1
			C362,87.9,360.8,90,360.8,92.8z"/>
		<path style="fill:#283A91;" d="M374.8,82.8c-0.4,5-0.5,10.2-0.6,15.3h-2c0.3-5.1,0.6-10.2,0.7-15.3H374.8z"/>
		<path style="fill:#283A91;" d="M385.6,96L385.6,96c-0.8,1.8-2.5,2.4-4.3,2.4c-2.4,0-4.1-1-4.1-3.7c0-1.7,0.3-5.3,0.3-7.9h1.9
			c-0.1,2.4-0.4,4.9-0.4,7.4c0,1.9,1.2,2.7,2.8,2.7c2.4,0,3.5-1.5,3.8-3.7c0.2-1.7,0.2-4.5,0.3-6.4h1.9c-0.2,3.8-0.5,7.6-0.5,11.4
			h-1.8L385.6,96z"/>
		<path style="fill:#283A91;" d="M389.6,88.2l0-1.4h1.5l0.1-2.1l1.7-0.4l-0.1,2.5h3l0,1.4h-3c-0.1,2.2-0.3,5.3-0.3,6.7
			c0,1.1,0.2,2,1.3,2c0.7,0,1.2-0.1,1.7-0.3l-0.2,1.5c-0.7,0.2-1.3,0.3-2,0.3c-1.8,0-2.7-0.7-2.7-2.7c0-1.3,0.3-5,0.4-7.5H389.6z"/>
		<path style="fill:#283A91;" d="M399.7,86.7c-0.3,3.8-0.4,7.6-0.4,11.4h-2c0.3-3.8,0.4-7.6,0.5-11.4H399.7z M397.8,84.4l0-1.6h2.1
			l0,1.6H397.8z"/>
		<path style="fill:#283A91;" d="M413.2,92.1c0,3-1.5,6.3-5.8,6.3c-3.3,0-5.4-2.2-5.4-5.7c0-3.7,2.1-6.2,5.8-6.2
			C411.1,86.5,413.2,88.6,413.2,92.1z M403.9,92.8c0,2.3,1.1,4.2,3.6,4.2c2.8,0,3.8-2.3,3.8-4.9c0-2.5-1.1-4.1-3.7-4.1
			C405.1,87.9,403.9,90,403.9,92.8z"/>
		<path style="fill:#283A91;" d="M417.5,89L417.5,89c0.9-1.9,2.5-2.5,4.4-2.5c2.3,0,4.1,0.9,4.1,3.6c0,0.8-0.3,6.2-0.3,8.1h-1.9
			c0.1-1.4,0.4-5.4,0.4-7.4c0-2-1.1-2.7-3-2.7c-1.9,0-3.2,1.2-3.6,3.1c-0.4,2-0.4,5.9-0.4,7h-2c0.3-3.8,0.5-7.6,0.6-11.4h1.9
			L417.5,89z"/>
		<path style="fill:#283A91;" d="M427.8,96.2c1,0.4,2,0.7,3.1,0.7c0.9,0,2.2-0.3,2.2-1.5c0-2.1-4.5-3.4-4.5-6.1
			c0-1.7,1.2-2.9,3.7-2.9c0.9,0,1.8,0.1,2.6,0.3l0.1,1.6c-0.7-0.3-1.5-0.5-2.5-0.5c-0.9,0-2.1,0.2-2.1,1.3c0,2.1,4.5,3.4,4.5,6.3
			c0,2.1-2.1,2.9-3.8,2.9c-1.1,0-2.2-0.2-3.2-0.5L427.8,96.2z"/>
	</g>
</g>
</svg>
